<svg width="24" height="24" viewBox="0 0 24 24" fill="none" xmlns="http://www.w3.org/2000/svg">
<path d="M7.80957 2.5H16.1904C17.9108 2.50008 19.2233 3.01135 20.1045 3.89355C20.9856 4.77581 21.495 6.08836 21.4902 7.80859V16.1904C21.4901 17.9107 20.9792 19.2239 20.0967 20.1064C19.2141 20.9891 17.9003 21.5 16.1797 21.5H7.80957C6.08923 21.4999 4.77604 20.9891 3.89355 20.1055C3.01097 19.2217 2.5 17.9056 2.5 16.1797V7.80957C2.50009 6.08922 3.011 4.77611 3.89355 3.89355C4.77611 3.011 6.08922 2.50009 7.80957 2.5Z" fill="#2879E4" stroke="#2879E4"/>
<path d="M15.75 9.75H8.25C7.84 9.75 7.5 9.41 7.5 9C7.5 8.59 7.84 8.25 8.25 8.25H15.75C16.16 8.25 16.5 8.59 16.5 9C16.5 9.41 16.16 9.75 15.75 9.75Z" fill="white"/>
<path d="M15.75 15.75H8.25C7.84 15.75 7.5 15.41 7.5 15C7.5 14.59 7.84 14.25 8.25 14.25H15.75C16.16 14.25 16.5 14.59 16.5 15C16.5 15.41 16.16 15.75 15.75 15.75Z" fill="white"/>
</svg>
