<svg width="16" height="16" viewBox="0 0 16 16" fill="none" xmlns="http://www.w3.org/2000/svg">
<path d="M10.3403 1.88574H5.66033C4.00033 1.88574 3.63366 2.71241 3.42033 3.72574L2.66699 7.33241H13.3337L12.5803 3.72574C12.367 2.71241 12.0003 1.88574 10.3403 1.88574Z" stroke="#636A79" stroke-width="1.5" stroke-linecap="round" stroke-linejoin="round"/>
<path d="M14.6608 13.213C14.7341 13.993 14.1075 14.6663 13.3075 14.6663H12.0541C11.3341 14.6663 11.2341 14.3597 11.1075 13.9797L10.9741 13.5797C10.7875 13.033 10.6675 12.6663 9.70747 12.6663H6.29413C5.33413 12.6663 5.19413 13.0797 5.02747 13.5797L4.89413 13.9797C4.76747 14.3597 4.66747 14.6663 3.94747 14.6663H2.69413C1.89413 14.6663 1.26747 13.993 1.3408 13.213L1.71413 9.15301C1.80747 8.15301 2.0008 7.33301 3.74747 7.33301H12.2541C14.0008 7.33301 14.1941 8.15301 14.2875 9.15301L14.6608 13.213Z" stroke="#636A79" stroke-width="1.5" stroke-linecap="round" stroke-linejoin="round"/>
<path d="M2.66667 5.33301H2" stroke="#636A79" stroke-width="1.5" stroke-linecap="round" stroke-linejoin="round"/>
<path d="M13.9997 5.33301H13.333" stroke="#636A79" stroke-width="1.5" stroke-linecap="round" stroke-linejoin="round"/>
<path d="M8 2V3.33333" stroke="#636A79" stroke-width="1.5" stroke-linecap="round" stroke-linejoin="round"/>
<path d="M7 3.33301H9" stroke="#636A79" stroke-width="1.5" stroke-linecap="round" stroke-linejoin="round"/>
<path d="M4 10H6" stroke="#636A79" stroke-width="1.5" stroke-linecap="round" stroke-linejoin="round"/>
<path d="M10 10H12" stroke="#636A79" stroke-width="1.5" stroke-linecap="round" stroke-linejoin="round"/>
</svg>
