<svg width="20" height="20" viewBox="0 0 20 20" fill="none" xmlns="http://www.w3.org/2000/svg">
<path d="M14.167 5.00033H18.3337V6.66699H16.667V17.5003C16.667 17.9606 16.2939 18.3337 15.8337 18.3337H4.16699C3.70676 18.3337 3.33366 17.9606 3.33366 17.5003V6.66699H1.66699V5.00033H5.83366V2.50033C5.83366 2.04009 6.20676 1.66699 6.66699 1.66699H13.3337C13.7939 1.66699 14.167 2.04009 14.167 2.50033V5.00033ZM15.0003 6.66699H5.00033V16.667H15.0003V6.66699ZM7.50033 9.16699H9.16699V14.167H7.50033V9.16699ZM10.8337 9.16699H12.5003V14.167H10.8337V9.16699ZM7.50033 3.33366V5.00033H12.5003V3.33366H7.50033Z" fill="#CB092D"/>
</svg>
