<svg width="12" height="12" viewBox="0 0 12 12" fill="none" xmlns="http://www.w3.org/2000/svg">
<path d="M11 3.25H8M3 3.25H1M11 8.75H9M4 8.75H1M6.75 3.25C6.75 4.2165 5.9665 5 5 5C4.0335 5 3.25 4.2165 3.25 3.25C3.25 2.2835 4.0335 1.5 5 1.5C5.9665 1.5 6.75 2.2835 6.75 3.25ZM8.75 8.75C8.75 9.7165 7.9665 10.5 7 10.5C6.0335 10.5 5.25 9.7165 5.25 8.75C5.25 7.7835 6.0335 7 7 7C7.9665 7 8.75 7.7835 8.75 8.75Z" stroke="#636A79" stroke-width="1.5" stroke-miterlimit="10" stroke-linecap="round" stroke-linejoin="round"/>
</svg>
