<svg width="38" height="38" viewBox="0 0 38 38" fill="none" xmlns="http://www.w3.org/2000/svg">
<rect width="38" height="38" rx="19" fill="#F2F4F7"/>
<path d="M18.9997 18.083C21.531 18.083 23.583 20.1351 23.583 22.6663V28.1663H21.7497V22.6663C21.7497 21.2018 20.6048 20.0046 19.1613 19.921L18.9997 19.9163C17.5351 19.9163 16.338 21.0612 16.2543 22.5047L16.2497 22.6663V28.1663H14.4163V22.6663C14.4163 20.1351 16.4684 18.083 18.9997 18.083ZM13.0413 20.833C13.297 20.833 13.5456 20.8629 13.7839 20.9194C13.6299 21.3775 13.5352 21.8615 13.5079 22.3632L13.4997 22.6663L13.5003 22.7448C13.3966 22.7081 13.2872 22.6835 13.1738 22.6727L13.0413 22.6663C12.3266 22.6663 11.7393 23.2117 11.6726 23.9089L11.6663 24.0413V28.1663H9.83301V24.0413C9.83301 22.2694 11.2694 20.833 13.0413 20.833ZM24.958 20.833C26.7299 20.833 28.1663 22.2694 28.1663 24.0413V28.1663H26.333V24.0413C26.333 23.3266 25.7877 22.7393 25.0905 22.6727L24.958 22.6663C24.7974 22.6663 24.6432 22.6938 24.4999 22.7444L24.4997 22.6663C24.4997 22.0561 24.4003 21.4692 24.2169 20.9206C24.4537 20.8629 24.7023 20.833 24.958 20.833ZM13.0413 15.333C14.307 15.333 15.333 16.359 15.333 17.6247C15.333 18.8903 14.307 19.9163 13.0413 19.9163C11.7757 19.9163 10.7497 18.8903 10.7497 17.6247C10.7497 16.359 11.7757 15.333 13.0413 15.333ZM24.958 15.333C26.2236 15.333 27.2497 16.359 27.2497 17.6247C27.2497 18.8903 26.2236 19.9163 24.958 19.9163C23.6924 19.9163 22.6663 18.8903 22.6663 17.6247C22.6663 16.359 23.6924 15.333 24.958 15.333ZM13.0413 17.1663C12.7882 17.1663 12.583 17.3716 12.583 17.6247C12.583 17.8778 12.7882 18.083 13.0413 18.083C13.2945 18.083 13.4997 17.8778 13.4997 17.6247C13.4997 17.3716 13.2945 17.1663 13.0413 17.1663ZM24.958 17.1663C24.7049 17.1663 24.4997 17.3716 24.4997 17.6247C24.4997 17.8778 24.7049 18.083 24.958 18.083C25.2111 18.083 25.4163 17.8778 25.4163 17.6247C25.4163 17.3716 25.2111 17.1663 24.958 17.1663ZM18.9997 9.83301C21.0247 9.83301 22.6663 11.4746 22.6663 13.4997C22.6663 15.5247 21.0247 17.1663 18.9997 17.1663C16.9746 17.1663 15.333 15.5247 15.333 13.4997C15.333 11.4746 16.9746 9.83301 18.9997 9.83301ZM18.9997 11.6663C17.9871 11.6663 17.1663 12.4872 17.1663 13.4997C17.1663 14.5122 17.9871 15.333 18.9997 15.333C20.0122 15.333 20.833 14.5122 20.833 13.4997C20.833 12.4872 20.0122 11.6663 18.9997 11.6663Z" fill="#4D5874"/>
</svg>
