<svg width="24" height="24" viewBox="0 0 24 24" fill="none" xmlns="http://www.w3.org/2000/svg">
<path d="M9.09668 3.31445C10.3498 2.34373 12.3348 2.23557 13.7236 3.02832L13.9932 3.19922L19.7539 7.22949C20.223 7.55795 20.6668 8.09662 20.9941 8.72363C21.3216 9.35081 21.5097 10.0239 21.5098 10.5996V17.3799C21.5097 19.6535 19.6642 21.4998 17.3906 21.5H6.61035C4.33804 21.5 2.49046 19.6452 2.49023 17.3701V10.4697L2.49805 10.2646C2.53474 9.77601 2.69807 9.22035 2.95898 8.69043C3.25703 8.08515 3.66148 7.55623 4.08789 7.22363L9.09668 3.31445Z" fill="#2879E4" stroke="#2879E4"/>
<path d="M12 18.75C11.59 18.75 11.25 18.41 11.25 18V15C11.25 14.59 11.59 14.25 12 14.25C12.41 14.25 12.75 14.59 12.75 15V18C12.75 18.41 12.41 18.75 12 18.75Z" fill="white"/>
</svg>
