<svg width="22" height="22" viewBox="0 0 22 22" fill="none" xmlns="http://www.w3.org/2000/svg">
<path d="M20.1666 7.80992V3.64825C20.1666 2.35575 19.5799 1.83325 18.1224 1.83325H14.4191C12.9616 1.83325 12.3749 2.35575 12.3749 3.64825V7.80075C12.3749 9.10242 12.9616 9.61575 14.4191 9.61575H18.1224C19.5799 9.62492 20.1666 9.10242 20.1666 7.80992Z" stroke="#A0A5B1" stroke-width="1.5" stroke-linecap="round" stroke-linejoin="round"/>
<path d="M20.1666 18.1224V14.4191C20.1666 12.9616 19.5799 12.3749 18.1224 12.3749H14.4191C12.9616 12.3749 12.3749 12.9616 12.3749 14.4191V18.1224C12.3749 19.5799 12.9616 20.1666 14.4191 20.1666H18.1224C19.5799 20.1666 20.1666 19.5799 20.1666 18.1224Z" stroke="#A0A5B1" stroke-width="1.5" stroke-linecap="round" stroke-linejoin="round"/>
<path d="M9.62492 7.80992V3.64825C9.62492 2.35575 9.03825 1.83325 7.58075 1.83325H3.87742C2.41992 1.83325 1.83325 2.35575 1.83325 3.64825V7.80075C1.83325 9.10242 2.41992 9.61575 3.87742 9.61575H7.58075C9.03825 9.62492 9.62492 9.10242 9.62492 7.80992Z" stroke="#A0A5B1" stroke-width="1.5" stroke-linecap="round" stroke-linejoin="round"/>
<path d="M9.62492 18.1224V14.4191C9.62492 12.9616 9.03825 12.3749 7.58075 12.3749H3.87742C2.41992 12.3749 1.83325 12.9616 1.83325 14.4191V18.1224C1.83325 19.5799 2.41992 20.1666 3.87742 20.1666H7.58075C9.03825 20.1666 9.62492 19.5799 9.62492 18.1224Z" stroke="#A0A5B1" stroke-width="1.5" stroke-linecap="round" stroke-linejoin="round"/>
</svg>
