<svg width="24" height="24" viewBox="0 0 24 24" fill="none" xmlns="http://www.w3.org/2000/svg">
<path opacity="0.4" d="M15.7305 2.5H19.7695C20.5255 2.5 20.9296 2.63967 21.1494 2.83496C21.3541 3.01688 21.5 3.33994 21.5 3.98047V8.51953C21.5 9.16055 21.3532 9.48269 21.1494 9.66309C20.9307 9.8565 20.5286 9.99495 19.7734 9.99023H15.7305C14.9731 9.99023 14.5699 9.85208 14.3506 9.6582C14.1471 9.47809 14 9.15645 14 8.50977V3.98047L14.0068 3.75391C14.0376 3.2609 14.1716 2.99409 14.3506 2.83496C14.5704 2.63967 14.9745 2.5 15.7305 2.5Z" fill="#418EFD" stroke="#2879E4"/>
<path d="M22 19.77V15.73C22 14.14 21.36 13.5 19.77 13.5H15.73C14.14 13.5 13.5 14.14 13.5 15.73V19.77C13.5 21.36 14.14 22 15.73 22H19.77C21.36 22 22 21.36 22 19.77Z" fill="#418EFD"/>
<path d="M10.5 8.52V3.98C10.5 2.57 9.86 2 8.27 2H4.23C2.64 2 2 2.57 2 3.98V8.51C2 9.93 2.64 10.49 4.23 10.49H8.27C9.86 10.5 10.5 9.93 10.5 8.52Z" fill="#418EFD"/>
<path opacity="0.4" d="M10.5 19.77V15.73C10.5 14.14 9.86 13.5 8.27 13.5H4.23C2.64 13.5 2 14.14 2 15.73V19.77C2 21.36 2.64 22 4.23 22H8.27C9.86 22 10.5 21.36 10.5 19.77Z" fill="#418EFD"/>
</svg>
