<svg width="38" height="38" viewBox="0 0 38 38" fill="none" xmlns="http://www.w3.org/2000/svg">
<rect width="38" height="38" rx="19" fill="#F2F4F7"/>
<path d="M18.9997 28.1663C13.9371 28.1663 9.83301 24.0622 9.83301 18.9997C9.83301 13.9371 13.9371 9.83301 18.9997 9.83301C24.0622 9.83301 28.1663 13.9371 28.1663 18.9997C28.1663 24.0622 24.0622 28.1663 18.9997 28.1663ZM18.9997 26.333C23.0498 26.333 26.333 23.0498 26.333 18.9997C26.333 14.9496 23.0498 11.6663 18.9997 11.6663C14.9496 11.6663 11.6663 14.9496 11.6663 18.9997C11.6663 23.0498 14.9496 26.333 18.9997 26.333ZM18.083 14.4163H19.9163V16.2497H18.083V14.4163ZM18.083 18.083H19.9163V23.583H18.083V18.083Z" fill="#4D5874"/>
</svg>
