<svg width="81" height="81" viewBox="0 0 81 81" fill="none" xmlns="http://www.w3.org/2000/svg">
<path opacity="0.4" d="M40.499 8.88184C47.6304 8.88184 55.3439 11.5382 60.8154 17.1689L19.8281 58.1553C14.4538 50.1308 11.0498 40.4419 13.4844 29.8047L13.4863 29.7969C15.1163 22.5563 19.106 17.3633 24.0322 13.9336L24.0312 13.9326C28.9783 10.5221 34.9251 8.8819 40.499 8.88184Z" fill="#418EFD" stroke="#2879E4" stroke-width="4.26316"/>
<path opacity="0.4" d="M66.832 27.3066C67.0889 28.1113 67.3166 28.9471 67.5117 29.8252L67.5137 29.834C71.1993 46.0885 61.2851 60.0644 51.7793 69.2715C48.6105 72.3207 44.5551 73.8398 40.5 73.8398C36.4554 73.8398 32.3968 72.2945 29.2207 69.2383L29.2139 69.2314L29.2061 69.2246L28.7705 68.8066C28.2059 68.2584 27.6391 67.677 27.0645 67.0742L66.832 27.3066Z" fill="#418EFD" stroke="#2879E4" stroke-width="4.26316"/>
<path d="M73.4744 7.5259C72.4619 6.47965 70.8419 6.47965 69.8294 7.5259L50.6931 26.6621L48.2631 29.0921C46.4406 26.5946 43.5719 25.1096 40.5006 25.1096C35.1681 25.1096 30.8144 29.4634 30.8144 34.7959C30.8144 37.8334 32.2994 40.7021 34.7969 42.5584L7.52688 69.8284C6.48062 70.8409 6.48062 72.4609 7.52688 73.4734C8.03313 73.9797 8.67437 74.2497 9.34937 74.2497C10.0244 74.2497 10.6656 73.9797 11.1719 73.4734L73.4744 11.1709C74.5206 10.1584 74.5206 8.5384 73.4744 7.5259Z" fill="#418EFD"/>
</svg>
