<svg width="38" height="38" viewBox="0 0 38 38" fill="none" xmlns="http://www.w3.org/2000/svg">
<rect width="38" height="38" rx="19" fill="#F2F4F7"/>
<path d="M19 8.91699L26.5322 10.5908C26.9516 10.684 27.25 11.056 27.25 11.4856V20.6402C27.25 22.4791 26.3309 24.1964 24.8008 25.2164L19 29.0837L13.1992 25.2164C11.6691 24.1964 10.75 22.4791 10.75 20.6402V11.4856C10.75 11.056 11.0484 10.684 11.4678 10.5908L19 8.91699ZM19 10.795L12.5833 12.221V20.6402C12.5833 21.8661 13.196 23.0109 14.2161 23.691L19 26.8803L23.7839 23.691C24.804 23.0109 25.4167 21.8661 25.4167 20.6402V12.221L19 10.795ZM19 14.417C20.0126 14.417 20.8333 15.2378 20.8333 16.2503C20.8333 16.9285 20.4651 17.5206 19.9177 17.8378L19.9167 21.7503H18.0833L18.0832 17.8384C17.5354 17.5214 17.1667 16.9289 17.1667 16.2503C17.1667 15.2378 17.9875 14.417 19 14.417Z" fill="#4D5874"/>
</svg>
