<svg width="20" height="20" viewBox="0 0 20 20" fill="none" xmlns="http://www.w3.org/2000/svg">
<g clip-path="url(#clip0_3053_23054)">
<path d="M10.0003 18.3337C5.39795 18.3337 1.66699 14.6027 1.66699 10.0003C1.66699 5.39795 5.39795 1.66699 10.0003 1.66699C12.7264 1.66699 15.1467 2.97598 16.6672 4.99968L14.4094 4.99975C13.2342 3.96282 11.6907 3.33366 10.0003 3.33366C6.31842 3.33366 3.33366 6.31843 3.33366 10.0003C3.33366 13.6822 6.31842 16.667 10.0003 16.667C11.6912 16.667 13.235 16.0375 14.4102 15.0002H16.6677C15.1474 17.0243 12.7267 18.3337 10.0003 18.3337ZM15.8337 13.3337V10.8337H9.16699V9.16699H15.8337V6.66699L20.0003 10.0003L15.8337 13.3337Z" fill="#CB092D"/>
</g>
<defs>
<clipPath id="clip0_3053_23054">
<rect width="20" height="20" fill="white"/>
</clipPath>
</defs>
</svg>
