<svg width="22" height="22" viewBox="0 0 22 22" fill="none" xmlns="http://www.w3.org/2000/svg">
<path d="M7.84662 3.06152V16.1974C7.53495 16.2065 7.22329 16.2799 6.99412 16.4174L4.83995 17.6457C3.33662 18.5074 2.09912 17.7924 2.09912 16.0507V7.13152C2.09912 6.55402 2.51162 5.83902 3.02495 5.54569L6.99412 3.27236C7.22329 3.14402 7.53495 3.07069 7.84662 3.06152Z" fill="#2879E4"/>
<path opacity="0.5" d="M14.4192 5.80236V18.9382C14.0983 18.9474 13.7867 18.8924 13.5392 18.7732L8.72668 16.3624C8.47918 16.2432 8.16751 16.1882 7.84668 16.1974V3.06153C8.16751 3.05236 8.47918 3.10736 8.72668 3.22653L13.5392 5.63736C13.7867 5.75653 14.0983 5.81153 14.4192 5.80236Z" fill="#2879E4"/>
<path opacity="0.8" d="M20.1667 5.94955V14.8687C20.1667 15.4462 19.7542 16.1612 19.2409 16.4546L15.2717 18.7279C15.0425 18.8562 14.7309 18.9296 14.4192 18.9387V5.80288C14.7309 5.79372 15.0425 5.72038 15.2717 5.58288L17.4259 4.35455C18.9292 3.49288 20.1667 4.20788 20.1667 5.94955Z" fill="#2879E4"/>
</svg>
