<svg width="22" height="22" viewBox="0 0 22 22" fill="none" xmlns="http://www.w3.org/2000/svg">
<path d="M7.84711 3.06152V16.1974C7.53544 16.2065 7.22378 16.2799 6.99461 16.4174L4.84044 17.6457C3.33711 18.5074 2.09961 17.7924 2.09961 16.0507V7.13152C2.09961 6.55402 2.51211 5.83902 3.02544 5.54569L6.99461 3.27236C7.22378 3.14402 7.53544 3.07069 7.84711 3.06152Z" fill="white"/>
<path opacity="0.5" d="M14.4182 5.80236V18.9382C14.0974 18.9474 13.7857 18.8924 13.5382 18.7732L8.7257 16.3624C8.4782 16.2432 8.16654 16.1882 7.8457 16.1974V3.06153C8.16654 3.05236 8.4782 3.10736 8.7257 3.22653L13.5382 5.63736C13.7857 5.75653 14.0974 5.81153 14.4182 5.80236Z" fill="white"/>
<path opacity="0.8" d="M20.1674 5.94955V14.8687C20.1674 15.4462 19.7549 16.1612 19.2416 16.4546L15.2724 18.7279C15.0433 18.8562 14.7316 18.9296 14.4199 18.9387V5.80288C14.7316 5.79372 15.0433 5.72038 15.2724 5.58288L17.4266 4.35455C18.9299 3.49288 20.1674 4.20788 20.1674 5.94955Z" fill="white"/>
</svg>
