<svg width="22" height="22" viewBox="0 0 22 22" fill="none" xmlns="http://www.w3.org/2000/svg">
<path d="M4.99555 12.7019L5.63808 13.0888L5.63976 13.0859L4.99555 12.7019ZM3.94138 14.4527L3.29886 14.0659L3.29874 14.066L3.94138 14.4527ZM4.93138 17.1386L4.69093 17.849L4.69372 17.8499L4.93138 17.1386ZM17.0955 17.1386L16.8601 16.4265L16.8579 16.4272L17.0955 17.1386ZM18.0855 14.4527L18.7287 14.0668L18.7281 14.0659L18.0855 14.4527ZM17.0314 12.7019L16.3816 13.0767L16.3889 13.0887L17.0314 12.7019ZM12.7133 2.93137L12.5042 3.65163C12.7786 3.7313 13.0745 3.64809 13.2672 3.43704C13.4598 3.22599 13.5158 2.92378 13.4116 2.65771L12.7133 2.93137ZM11.8333 2.74803L11.7403 3.49225L11.743 3.49258L11.8333 2.74803ZM9.32161 2.93137L8.62332 2.65771C8.51903 2.92383 8.57507 3.22609 8.76781 3.43714C8.96056 3.64819 9.25651 3.73134 9.53097 3.65155L9.32161 2.93137ZM11.018 2.66439V1.91439C7.56967 1.91439 4.76805 4.71601 4.76805 8.16439H5.51805H6.26805C6.26805 5.54443 8.39809 3.41439 11.018 3.41439V2.66439ZM5.51805 8.16439H4.76805V10.8136H5.51805H6.26805V8.16439H5.51805ZM5.51805 10.8136H4.76805C4.76805 11.0028 4.72489 11.2847 4.64069 11.588C4.55655 11.8911 4.44813 12.1555 4.35134 12.3178L4.99555 12.7019L5.63976 13.0859C5.82713 12.7716 5.97996 12.3714 6.08603 11.9893C6.19204 11.6074 6.26805 11.1835 6.26805 10.8136H5.51805ZM4.99555 12.7019L4.35302 12.315L3.29886 14.0659L3.94138 14.4527L4.58391 14.8396L5.63807 13.0887L4.99555 12.7019ZM3.94138 14.4527L3.29874 14.066C2.86729 14.7831 2.77567 15.5909 3.04211 16.3104C3.30823 17.0291 3.90269 17.5822 4.69093 17.849L4.93138 17.1386L5.17183 16.4281C4.7684 16.2916 4.54245 16.0426 4.44878 15.7896C4.35543 15.5375 4.36464 15.204 4.58402 14.8394L3.94138 14.4527ZM4.93138 17.1386L4.69372 17.8499C8.7988 19.2214 13.2281 19.2214 17.3332 17.8499L17.0955 17.1386L16.8579 16.4272C13.0613 17.6957 8.96563 17.6957 5.16905 16.4272L4.93138 17.1386ZM17.0955 17.1386L17.331 17.8507C18.8992 17.3322 19.5794 15.4848 18.7287 14.0668L18.0855 14.4527L17.4424 14.8386C17.8017 15.4373 17.5103 16.2115 16.8601 16.4265L17.0955 17.1386ZM18.0855 14.4527L18.7281 14.0659L17.6739 12.315L17.0314 12.7019L16.3889 13.0887L17.443 14.8396L18.0855 14.4527ZM17.0314 12.7019L17.681 12.3271C17.5856 12.1617 17.4783 11.8944 17.3949 11.5903C17.3113 11.2854 17.268 11.003 17.268 10.8136H16.518H15.768C15.768 11.1833 15.844 11.6067 15.9483 11.987C16.0528 12.3682 16.2021 12.7654 16.3817 13.0767L17.0314 12.7019ZM16.518 10.8136H17.268V8.16439H16.518H15.768V10.8136H16.518ZM16.518 8.16439H17.268C17.268 4.72517 14.4573 1.91439 11.018 1.91439V2.66439V3.41439C13.6288 3.41439 15.768 5.5536 15.768 8.16439H16.518ZM12.7133 2.93137L12.9224 2.21111C12.6056 2.11915 12.2723 2.04576 11.9235 2.00348L11.8333 2.74803L11.743 3.49258C11.9993 3.52365 12.2526 3.57859 12.5042 3.65163L12.7133 2.93137ZM11.8333 2.74803L11.9263 2.00383C10.9507 1.88188 10.0041 1.95191 9.11226 2.21118L9.32161 2.93137L9.53097 3.65155C10.2157 3.45249 10.9558 3.39419 11.7403 3.49224L11.8333 2.74803ZM9.32161 2.93137L10.0199 3.20502C10.1763 2.80597 10.5646 2.52637 11.0174 2.52637V1.77637V1.02637C9.93031 1.02637 8.9986 1.7001 8.62332 2.65771L9.32161 2.93137ZM11.0174 1.77637V2.52637C11.4703 2.52637 11.8586 2.80597 12.015 3.20502L12.7133 2.93137L13.4116 2.65771C13.0363 1.7001 12.1046 1.02637 11.0174 1.02637V1.77637ZM13.7671 17.4743H13.0171C13.0171 18.5726 12.1154 19.4743 11.0171 19.4743V20.2243V20.9743C12.9438 20.9743 14.5171 19.401 14.5171 17.4743H13.7671ZM11.0171 20.2243V19.4743C10.4729 19.4743 9.96461 19.2478 9.60409 18.8873L9.07376 19.4176L8.54343 19.9479C9.1729 20.5774 10.0579 20.9743 11.0171 20.9743V20.2243ZM9.07376 19.4176L9.60409 18.8873C9.24356 18.5268 9.01709 18.0185 9.01709 17.4743H8.26709H7.51709C7.51709 18.4334 7.91395 19.3185 8.54343 19.9479L9.07376 19.4176Z" fill="#A0A5B1"/>
</svg>
