<svg width="22" height="22" viewBox="0 0 22 22" fill="none" xmlns="http://www.w3.org/2000/svg">
<path d="M10.8074 13.0255L7.80992 16.023C7.47992 15.7297 7.15909 15.4272 6.84742 15.1155C5.90325 14.1622 5.05075 13.163 4.28992 12.118C3.53825 11.073 2.93325 10.028 2.49325 8.99218C2.05325 7.94718 1.83325 6.94801 1.83325 5.99467C1.83325 5.37134 1.94325 4.77551 2.16325 4.22551C2.38325 3.66634 2.73159 3.15301 3.21742 2.69467C3.80409 2.11717 4.44575 1.83301 5.12409 1.83301C5.38075 1.83301 5.63742 1.88801 5.86659 1.99801C6.10492 2.10801 6.31575 2.27301 6.48075 2.51134L8.60742 5.50884C8.77242 5.73801 8.89159 5.94884 8.97409 6.15051C9.05659 6.34301 9.10242 6.53551 9.10242 6.70967C9.10242 6.92967 9.03825 7.14967 8.90992 7.36051C8.79075 7.57134 8.61659 7.79134 8.39659 8.01134L7.69992 8.73551C7.59908 8.83634 7.55325 8.95551 7.55325 9.10217C7.55325 9.17551 7.56242 9.23967 7.58075 9.31301C7.60825 9.38634 7.63575 9.44134 7.65409 9.49634C7.81909 9.79884 8.10325 10.193 8.50659 10.6697C8.91909 11.1463 9.35909 11.6322 9.83575 12.118C10.1658 12.4388 10.4866 12.7505 10.8074 13.0255Z" fill="#2879E4"/>
<path d="M20.1392 16.8026C20.1392 17.0593 20.0934 17.3251 20.0017 17.5818C19.9742 17.6551 19.9467 17.7285 19.91 17.8018C19.7542 18.1318 19.5525 18.4435 19.2867 18.7368C18.8375 19.2318 18.3425 19.5893 17.7834 19.8185C17.7742 19.8185 17.765 19.8276 17.7559 19.8276C17.215 20.0476 16.6284 20.1668 15.9959 20.1668C15.0609 20.1668 14.0617 19.9468 13.0075 19.4976C11.9534 19.0485 10.8992 18.4435 9.85422 17.6826C9.49672 17.4168 9.13922 17.1509 8.80005 16.8668L11.7975 13.8693C12.0542 14.0618 12.2834 14.2085 12.4759 14.3093C12.5217 14.3276 12.5767 14.3551 12.6409 14.3826C12.7142 14.4101 12.7875 14.4193 12.87 14.4193C13.0259 14.4193 13.145 14.3643 13.2459 14.2635L13.9425 13.576C14.1717 13.3468 14.3917 13.1726 14.6025 13.0626C14.8134 12.9343 15.0242 12.8701 15.2534 12.8701C15.4275 12.8701 15.6109 12.9068 15.8125 12.9893C16.0142 13.0718 16.225 13.191 16.4542 13.3468L19.4884 15.501C19.7267 15.666 19.8917 15.8584 19.9925 16.0876C20.0842 16.3168 20.1392 16.546 20.1392 16.8026Z" fill="#2879E4"/>
</svg>
