<svg width="22" height="22" viewBox="0 0 22 22" fill="none" xmlns="http://www.w3.org/2000/svg">
<path d="M5.125 2.33301C5.31159 2.33303 5.49404 2.3737 5.65137 2.44922L5.6582 2.45215C5.82206 2.52785 5.96038 2.63714 6.07031 2.7959L6.07324 2.80078L8.2002 5.79785L8.20215 5.80078C8.31237 5.95387 8.39525 6.09173 8.45703 6.21777L8.51172 6.33984L8.51562 6.34766C8.57854 6.49455 8.60352 6.61969 8.60352 6.70996C8.60346 6.82924 8.56886 6.96019 8.4834 7.10059L8.47559 7.11426C8.38434 7.27569 8.24129 7.46086 8.04395 7.6582L8.03711 7.66504L7.33984 8.38867C7.14238 8.58976 7.05371 8.83771 7.05371 9.10254C7.05374 9.22309 7.07016 9.32851 7.09668 9.43457L7.10352 9.46191L7.11328 9.48828C7.13141 9.53662 7.14967 9.57935 7.16113 9.60645C7.17421 9.63736 7.17853 9.6479 7.18066 9.6543L7.19434 9.69629L7.21582 9.73535C7.40444 10.0811 7.71384 10.5051 8.12598 10.9922L8.12891 10.9971C8.54642 11.4795 8.99398 11.9729 9.47949 12.4678L9.83691 12.1182L9.47949 12.4688L9.48828 12.4766C9.68444 12.6673 9.88206 12.8597 10.0811 13.0449L7.79492 15.3311C7.59393 15.1446 7.3949 14.9554 7.20117 14.7617C6.27491 13.8263 5.43922 12.8463 4.69434 11.8232C3.96147 10.804 3.37673 9.79256 2.9541 8.79785H2.95508C2.53624 7.80308 2.33405 6.87027 2.33398 5.99512C2.33398 5.43105 2.43313 4.89815 2.62793 4.41113L2.62891 4.4082C2.82033 3.92175 3.12591 3.46955 3.56152 3.05859L3.56934 3.05078C4.08043 2.5478 4.60136 2.33301 5.125 2.33301Z" fill="#F8F9FB" stroke="#F8F9FB"/>
<path d="M20.1399 16.8026C20.1399 17.0593 20.0941 17.3251 20.0024 17.5818C19.9749 17.6551 19.9474 17.7285 19.9108 17.8018C19.7549 18.1318 19.5533 18.4435 19.2874 18.7368C18.8383 19.2318 18.3433 19.5893 17.7841 19.8185C17.7749 19.8185 17.7658 19.8276 17.7566 19.8276C17.2158 20.0476 16.6291 20.1668 15.9966 20.1668C15.0616 20.1668 14.0624 19.9468 13.0083 19.4976C11.9541 19.0485 10.8999 18.4435 9.85495 17.6826C9.49745 17.4168 9.13995 17.1509 8.80078 16.8668L11.7983 13.8693C12.0549 14.0618 12.2841 14.2085 12.4766 14.3093C12.5224 14.3276 12.5774 14.3551 12.6416 14.3826C12.7149 14.4101 12.7883 14.4193 12.8708 14.4193C13.0266 14.4193 13.1458 14.3643 13.2466 14.2635L13.9433 13.576C14.1724 13.3468 14.3924 13.1726 14.6033 13.0626C14.8141 12.9343 15.0249 12.8701 15.2541 12.8701C15.4283 12.8701 15.6116 12.9068 15.8133 12.9893C16.0149 13.0718 16.2258 13.191 16.4549 13.3468L19.4891 15.501C19.7274 15.666 19.8924 15.8584 19.9933 16.0876C20.0849 16.3168 20.1399 16.546 20.1399 16.8026Z" fill="#F3F8FF"/>
</svg>
