<svg width="38" height="38" viewBox="0 0 38 38" fill="none" xmlns="http://www.w3.org/2000/svg">
<rect width="38" height="38" rx="19" fill="#F2F4F7"/>
<path d="M11.0617 23.5836C10.6654 22.8972 10.368 22.1811 10.165 21.4513C11.0565 20.9964 11.6669 20.0696 11.6669 19.0002C11.6669 17.9317 11.0574 17.0054 10.1671 16.5502C10.5765 15.0735 11.3542 13.6983 12.4598 12.5742C13.2995 13.1189 14.4074 13.1841 15.3336 12.6494C16.2597 12.1146 16.7572 11.1225 16.7053 10.1231C18.2317 9.72759 19.8115 9.74174 21.295 10.1254C21.244 11.1241 21.7414 12.1151 22.6669 12.6494C23.5931 13.1841 24.701 13.1189 25.5405 12.5743C26.071 13.1149 26.5425 13.7306 26.9388 14.4169C27.335 15.1032 27.6325 15.8194 27.8354 16.5491C26.944 17.004 26.3335 17.9308 26.3335 19.0002C26.3335 20.0689 26.943 20.9951 27.8334 21.4503C27.4239 22.9269 26.6463 24.3021 25.5406 25.4262C24.701 24.8816 23.5931 24.8164 22.6669 25.3511C21.7407 25.8858 21.2433 26.878 21.2951 27.8774C19.7688 28.2729 18.1891 28.2587 16.7055 27.875C16.7564 26.8763 16.259 25.8854 15.3336 25.3511C14.4074 24.8164 13.2995 24.8816 12.4599 25.4261C11.9295 24.8855 11.4579 24.2699 11.0617 23.5836ZM16.2502 23.7634C17.2507 24.341 17.9691 25.2542 18.3133 26.3021C18.77 26.3456 19.2298 26.3462 19.6867 26.3036C20.0306 25.2551 20.7493 24.3413 21.7502 23.7634C22.7511 23.1854 23.9019 23.0201 24.9819 23.2464C25.2472 22.872 25.4766 22.4735 25.6673 22.0562C24.9319 21.2342 24.5002 20.1554 24.5002 19.0002C24.5002 17.845 24.9319 16.7663 25.6673 15.9443C25.5719 15.7372 25.4665 15.5334 25.3511 15.3336C25.2357 15.1337 25.1119 14.9406 24.9802 14.7544C23.9007 14.9802 22.7507 14.8147 21.7502 14.2371C20.7498 13.6595 20.0314 12.7462 19.6872 11.6984C19.2305 11.6549 18.7706 11.6543 18.3138 11.6969C17.9698 12.7454 17.2511 13.6592 16.2502 14.2371C15.2493 14.815 14.0986 14.9804 13.0186 14.7541C12.7533 15.1284 12.5239 15.5269 12.3332 15.9442C13.0686 16.7662 13.5002 17.845 13.5002 19.0002C13.5002 20.1554 13.0686 21.2341 12.3332 22.0561C12.4286 22.2633 12.534 22.4671 12.6494 22.6669C12.7648 22.8667 12.8885 23.0599 13.0203 23.246C14.0998 23.0203 15.2498 23.1858 16.2502 23.7634ZM19.0002 21.7502C17.4815 21.7502 16.2502 20.519 16.2502 19.0002C16.2502 17.4815 17.4815 16.2502 19.0002 16.2502C20.519 16.2502 21.7502 17.4815 21.7502 19.0002C21.7502 20.519 20.519 21.7502 19.0002 21.7502ZM19.0002 19.9169C19.5065 19.9169 19.9169 19.5065 19.9169 19.0002C19.9169 18.4939 19.5065 18.0836 19.0002 18.0836C18.4939 18.0836 18.0835 18.4939 18.0835 19.0002C18.0835 19.5065 18.4939 19.9169 19.0002 19.9169Z" fill="#4D5874"/>
</svg>
