<svg width="22" height="22" viewBox="0 0 22 22" fill="none" xmlns="http://www.w3.org/2000/svg">
<path d="M7.01219 19.1677C6.98469 19.1677 6.94802 19.186 6.92052 19.186C5.14219 18.306 3.69385 16.8485 2.80469 15.0702C2.80469 15.0427 2.82302 15.006 2.82302 14.9785C3.94135 15.3085 5.09635 15.556 6.24219 15.7485C6.44385 16.9035 6.68219 18.0493 7.01219 19.1677Z" fill="#F3F8FF"/>
<path opacity="0.4" d="M19.1941 15.0793C18.2866 16.9035 16.7741 18.3793 14.9316 19.2685C15.28 18.1043 15.5733 16.931 15.7658 15.7485C16.9208 15.556 18.0575 15.3085 19.1758 14.9785C19.1666 15.0152 19.1941 15.0518 19.1941 15.0793Z" fill="white"/>
<path opacity="0.4" d="M19.2675 7.06728C18.1125 6.71895 16.9483 6.43478 15.7658 6.23311C15.5733 5.05061 15.2891 3.87728 14.9316 2.73145C16.8291 3.63895 18.36 5.16978 19.2675 7.06728Z" fill="white"/>
<path opacity="0.4" d="M7.01326 2.83219C6.68326 3.95052 6.44492 5.08719 6.25242 6.24219C5.06992 6.42552 3.89659 6.71885 2.73242 7.06719C3.62159 5.22469 5.09742 3.71219 6.92159 2.80469C6.94909 2.80469 6.98576 2.83219 7.01326 2.83219Z" fill="white"/>
<path d="M14.1991 6.04051C12.0724 5.80217 9.92745 5.80217 7.80078 6.04051C8.02995 4.78467 8.32328 3.52884 8.73578 2.31884C8.75411 2.24551 8.74495 2.19051 8.75411 2.11717C9.47828 1.94301 10.2208 1.83301 10.9999 1.83301C11.7699 1.83301 12.5216 1.94301 13.2366 2.11717C13.2458 2.19051 13.2458 2.24551 13.2641 2.31884C13.6766 3.53801 13.9699 4.78467 14.1991 6.04051Z" fill="white"/>
<path d="M6.04148 14.1991C4.77648 13.9699 3.52982 13.6766 2.31982 13.2641C2.24648 13.2458 2.19148 13.2549 2.11815 13.2458C1.94398 12.5216 1.83398 11.7791 1.83398 10.9999C1.83398 10.2299 1.94398 9.47828 2.11815 8.76328C2.19148 8.75411 2.24648 8.75411 2.31982 8.73578C3.53898 8.33245 4.77648 8.02995 6.04148 7.80078C5.81232 9.92745 5.81232 12.0724 6.04148 14.1991Z" fill="white"/>
<path d="M20.1665 10.9999C20.1665 11.7791 20.0565 12.5216 19.8823 13.2458C19.809 13.2549 19.754 13.2458 19.6807 13.2641C18.4615 13.6674 17.2148 13.9699 15.959 14.1991C16.1973 12.0724 16.1973 9.92745 15.959 7.80078C17.2148 8.02995 18.4707 8.32328 19.6807 8.73578C19.754 8.75411 19.809 8.76328 19.8823 8.76328C20.0565 9.48745 20.1665 10.2299 20.1665 10.9999Z" fill="white"/>
<path d="M14.1991 15.959C13.9699 17.224 13.6766 18.4707 13.2641 19.6807C13.2458 19.754 13.2458 19.809 13.2366 19.8823C12.5216 20.0565 11.7699 20.1665 10.9999 20.1665C10.2208 20.1665 9.47828 20.0565 8.75411 19.8823C8.74495 19.809 8.75411 19.754 8.73578 19.6807C8.33245 18.4615 8.02995 17.224 7.80078 15.959C8.86411 16.0782 9.92745 16.1607 10.9999 16.1607C12.0724 16.1607 13.1449 16.0782 14.1991 15.959Z" fill="white"/>
<path d="M14.4504 14.4494C12.1577 14.7387 9.8436 14.7387 7.55093 14.4494C7.26167 12.1567 7.26167 9.84263 7.55093 7.54995C9.8436 7.26069 12.1577 7.26069 14.4504 7.54995C14.7396 9.84263 14.7396 12.1567 14.4504 14.4494Z" fill="white"/>
</svg>
