<svg width="22" height="22" viewBox="0 0 22 22" fill="none" xmlns="http://www.w3.org/2000/svg">
<path d="M7.01243 19.1677C6.98493 19.1677 6.94827 19.186 6.92077 19.186C5.14243 18.306 3.6941 16.8485 2.80493 15.0702C2.80493 15.0427 2.82326 15.006 2.82326 14.9785C3.9416 15.3085 5.0966 15.556 6.24243 15.7485C6.4441 16.9035 6.68243 18.0493 7.01243 19.1677Z" fill="#2879E4"/>
<path opacity="0.4" d="M19.1951 15.0793C18.2876 16.9035 16.7751 18.3793 14.9326 19.2685C15.281 18.1043 15.5743 16.931 15.7668 15.7485C16.9218 15.556 18.0584 15.3085 19.1768 14.9785C19.1676 15.0152 19.1951 15.0518 19.1951 15.0793Z" fill="#2879E4"/>
<path opacity="0.4" d="M19.2685 7.06728C18.1135 6.71895 16.9493 6.43478 15.7668 6.23311C15.5743 5.05061 15.2901 3.87728 14.9326 2.73145C16.8301 3.63895 18.361 5.16978 19.2685 7.06728Z" fill="#418EFD"/>
<path opacity="0.4" d="M7.01252 2.83219C6.68252 3.95052 6.44419 5.08719 6.25169 6.24219C5.06919 6.42552 3.89586 6.71885 2.73169 7.06719C3.62086 5.22469 5.09669 3.71219 6.92086 2.80469C6.94836 2.80469 6.98502 2.83219 7.01252 2.83219Z" fill="#418EFD"/>
<path d="M14.1991 6.04051C12.0724 5.80217 9.92745 5.80217 7.80078 6.04051C8.02995 4.78467 8.32328 3.52884 8.73578 2.31884C8.75411 2.24551 8.74495 2.19051 8.75411 2.11717C9.47828 1.94301 10.2208 1.83301 10.9999 1.83301C11.7699 1.83301 12.5216 1.94301 13.2366 2.11717C13.2458 2.19051 13.2458 2.24551 13.2641 2.31884C13.6766 3.53801 13.9699 4.78467 14.1991 6.04051Z" fill="#418EFD"/>
<path d="M6.04075 14.1991C4.77575 13.9699 3.52909 13.6766 2.31909 13.2641C2.24575 13.2458 2.19075 13.2549 2.11742 13.2458C1.94325 12.5216 1.83325 11.7791 1.83325 10.9999C1.83325 10.2299 1.94325 9.47828 2.11742 8.76328C2.19075 8.75411 2.24575 8.75411 2.31909 8.73578C3.53825 8.33245 4.77575 8.02995 6.04075 7.80078C5.81159 9.92745 5.81159 12.0724 6.04075 14.1991Z" fill="#418EFD"/>
<path d="M20.1667 10.9999C20.1667 11.7791 20.0567 12.5216 19.8826 13.2458C19.8092 13.2549 19.7542 13.2458 19.6809 13.2641C18.4617 13.6674 17.2151 13.9699 15.9592 14.1991C16.1976 12.0724 16.1976 9.92745 15.9592 7.80078C17.2151 8.02995 18.4709 8.32328 19.6809 8.73578C19.7542 8.75411 19.8092 8.76328 19.8826 8.76328C20.0567 9.48745 20.1667 10.2299 20.1667 10.9999Z" fill="#418EFD"/>
<path d="M14.1991 15.959C13.9699 17.224 13.6766 18.4707 13.2641 19.6807C13.2458 19.754 13.2458 19.809 13.2366 19.8823C12.5216 20.0565 11.7699 20.1665 10.9999 20.1665C10.2208 20.1665 9.47828 20.0565 8.75411 19.8823C8.74495 19.809 8.75411 19.754 8.73578 19.6807C8.33245 18.4615 8.02995 17.224 7.80078 15.959C8.86411 16.0782 9.92745 16.1607 10.9999 16.1607C12.0724 16.1607 13.1449 16.0782 14.1991 15.959Z" fill="#418EFD"/>
<path d="M14.4496 14.4494C12.157 14.7387 9.84287 14.7387 7.5502 14.4494C7.26094 12.1567 7.26094 9.84263 7.5502 7.54995C9.84287 7.26069 12.157 7.26069 14.4496 7.54995C14.7389 9.84263 14.7389 12.1567 14.4496 14.4494Z" fill="#418EFD"/>
</svg>
